G04 #@! TF.GenerationSoftware,KiCad,Pcbnew,10.0.3*
G04 #@! TF.CreationDate,2026-06-07T14:47:39-04:00*
G04 #@! TF.ProjectId,ServoTesterBoard,53657276-6f54-4657-9374-6572426f6172,rev?*
G04 #@! TF.SameCoordinates,Original*
G04 #@! TF.FileFunction,Soldermask,Top*
G04 #@! TF.FilePolarity,Negative*
%FSLAX46Y46*%
G04 Gerber Fmt 4.6, Leading zero omitted, Abs format (unit mm)*
G04 Created by KiCad (PCBNEW 10.0.3) date 2026-06-07 14:47:39*
%MOMM*%
%LPD*%
G01*
G04 APERTURE LIST*
G04 Aperture macros list*
%AMRoundRect*
0 Rectangle with rounded corners*
0 $1 Rounding radius*
0 $2 $3 $4 $5 $6 $7 $8 $9 X,Y pos of 4 corners*
0 Add a 4 corners polygon primitive as box body*
4,1,4,$2,$3,$4,$5,$6,$7,$8,$9,$2,$3,0*
0 Add four circle primitives for the rounded corners*
1,1,$1+$1,$2,$3*
1,1,$1+$1,$4,$5*
1,1,$1+$1,$6,$7*
1,1,$1+$1,$8,$9*
0 Add four rect primitives between the rounded corners*
20,1,$1+$1,$2,$3,$4,$5,0*
20,1,$1+$1,$4,$5,$6,$7,0*
20,1,$1+$1,$6,$7,$8,$9,0*
20,1,$1+$1,$8,$9,$2,$3,0*%
G04 Aperture macros list end*
%ADD10RoundRect,0.250000X0.625000X-0.400000X0.625000X0.400000X-0.625000X0.400000X-0.625000X-0.400000X0*%
%ADD11R,1.050000X1.500000*%
%ADD12O,1.050000X1.500000*%
%ADD13RoundRect,0.250000X0.375000X0.625000X-0.375000X0.625000X-0.375000X-0.625000X0.375000X-0.625000X0*%
%ADD14R,2.000000X4.600000*%
%ADD15O,2.000000X4.200000*%
%ADD16O,4.200000X2.000000*%
%ADD17RoundRect,0.250000X-0.400000X-0.625000X0.400000X-0.625000X0.400000X0.625000X-0.400000X0.625000X0*%
%ADD18C,2.000000*%
%ADD19R,1.651000X1.651000*%
%ADD20C,1.651000*%
%ADD21RoundRect,0.250000X-0.650000X0.325000X-0.650000X-0.325000X0.650000X-0.325000X0.650000X0.325000X0*%
%ADD22RoundRect,0.250000X0.325000X0.650000X-0.325000X0.650000X-0.325000X-0.650000X0.325000X-0.650000X0*%
%ADD23RoundRect,0.250000X0.750000X-0.750000X0.750000X0.750000X-0.750000X0.750000X-0.750000X-0.750000X0*%
%ADD24RoundRect,0.250000X0.650000X-0.325000X0.650000X0.325000X-0.650000X0.325000X-0.650000X-0.325000X0*%
%ADD25R,1.700000X1.700000*%
%ADD26C,1.700000*%
%ADD27RoundRect,0.250000X-0.625000X0.400000X-0.625000X-0.400000X0.625000X-0.400000X0.625000X0.400000X0*%
%ADD28RoundRect,0.150000X-0.825000X-0.150000X0.825000X-0.150000X0.825000X0.150000X-0.825000X0.150000X0*%
%ADD29RoundRect,0.250000X-0.325000X-0.650000X0.325000X-0.650000X0.325000X0.650000X-0.325000X0.650000X0*%
%ADD30O,2.200000X3.500000*%
%ADD31R,1.500000X2.500000*%
%ADD32O,1.500000X2.500000*%
G04 APERTURE END LIST*
D10*
G04 #@! TO.C,R5*
X181250000Y-87050000D03*
X181250000Y-83950000D03*
G04 #@! TD*
D11*
G04 #@! TO.C,Q1*
X167460000Y-83617677D03*
D12*
X168730000Y-83617677D03*
X170000000Y-83617677D03*
G04 #@! TD*
D13*
G04 #@! TO.C,D2*
X141950000Y-89000000D03*
X139150000Y-89000000D03*
G04 #@! TD*
D14*
G04 #@! TO.C,J1*
X147350000Y-76100000D03*
D15*
X141050000Y-76100000D03*
D16*
X144450000Y-80900000D03*
G04 #@! TD*
D17*
G04 #@! TO.C,R1*
X144000000Y-86000000D03*
X147100000Y-86000000D03*
G04 #@! TD*
D13*
G04 #@! TO.C,D1*
X141950000Y-86000000D03*
X139150000Y-86000000D03*
G04 #@! TD*
D18*
G04 #@! TO.C,SW3*
X191250000Y-91500000D03*
X184750000Y-91500000D03*
X191250000Y-87000000D03*
X184750000Y-87000000D03*
G04 #@! TD*
D19*
G04 #@! TO.C,U2*
X155678911Y-90500000D03*
D20*
X158218911Y-90500000D03*
X160758911Y-90500000D03*
G04 #@! TD*
D21*
G04 #@! TO.C,C6*
X178250000Y-91642677D03*
X178250000Y-94592677D03*
G04 #@! TD*
D22*
G04 #@! TO.C,C3*
X162266811Y-94250000D03*
X159316811Y-94250000D03*
G04 #@! TD*
D23*
G04 #@! TO.C,C2*
X171500000Y-76117677D03*
D18*
X171500000Y-71117677D03*
G04 #@! TD*
D24*
G04 #@! TO.C,C4*
X178500000Y-75475000D03*
X178500000Y-72525000D03*
G04 #@! TD*
D25*
G04 #@! TO.C,J2*
X146500000Y-65250000D03*
D26*
X146500000Y-67790000D03*
G04 #@! TD*
D10*
G04 #@! TO.C,R3*
X167250000Y-91550000D03*
X167250000Y-88450000D03*
G04 #@! TD*
D27*
G04 #@! TO.C,R6*
X181250000Y-90700000D03*
X181250000Y-93800000D03*
G04 #@! TD*
D10*
G04 #@! TO.C,R7*
X182250000Y-73550000D03*
X182250000Y-70450000D03*
G04 #@! TD*
D25*
G04 #@! TO.C,J3*
X190540000Y-72000000D03*
D26*
X188000000Y-72000000D03*
X185460000Y-72000000D03*
G04 #@! TD*
D28*
G04 #@! TO.C,U1*
X170275000Y-87712677D03*
X170275000Y-88982677D03*
X170275000Y-90252677D03*
X170275000Y-91522677D03*
X175225000Y-91522677D03*
X175225000Y-90252677D03*
X175225000Y-88982677D03*
X175225000Y-87712677D03*
G04 #@! TD*
D22*
G04 #@! TO.C,C5*
X173225000Y-93867677D03*
X170275000Y-93867677D03*
G04 #@! TD*
D27*
G04 #@! TO.C,R4*
X178250000Y-84700000D03*
X178250000Y-87800000D03*
G04 #@! TD*
D18*
G04 #@! TO.C,SW2*
X191250000Y-82500000D03*
X184750000Y-82500000D03*
X191250000Y-78000000D03*
X184750000Y-78000000D03*
G04 #@! TD*
D17*
G04 #@! TO.C,R2*
X144000000Y-89000000D03*
X147100000Y-89000000D03*
G04 #@! TD*
D29*
G04 #@! TO.C,C1*
X154066811Y-94250000D03*
X157016811Y-94250000D03*
G04 #@! TD*
D30*
G04 #@! TO.C,SW1*
X138950000Y-95250000D03*
X147150000Y-95250000D03*
D31*
X141050000Y-95250000D03*
D32*
X143050000Y-95250000D03*
X145050000Y-95250000D03*
G04 #@! TD*
M02*
