G04 #@! TF.GenerationSoftware,KiCad,Pcbnew,10.0.3*
G04 #@! TF.CreationDate,2026-06-07T14:47:39-04:00*
G04 #@! TF.ProjectId,ServoTesterBoard,53657276-6f54-4657-9374-6572426f6172,rev?*
G04 #@! TF.SameCoordinates,Original*
G04 #@! TF.FileFunction,Copper,L1,Top*
G04 #@! TF.FilePolarity,Positive*
%FSLAX46Y46*%
G04 Gerber Fmt 4.6, Leading zero omitted, Abs format (unit mm)*
G04 Created by KiCad (PCBNEW 10.0.3) date 2026-06-07 14:47:39*
%MOMM*%
%LPD*%
G01*
G04 APERTURE LIST*
G04 Aperture macros list*
%AMRoundRect*
0 Rectangle with rounded corners*
0 $1 Rounding radius*
0 $2 $3 $4 $5 $6 $7 $8 $9 X,Y pos of 4 corners*
0 Add a 4 corners polygon primitive as box body*
4,1,4,$2,$3,$4,$5,$6,$7,$8,$9,$2,$3,0*
0 Add four circle primitives for the rounded corners*
1,1,$1+$1,$2,$3*
1,1,$1+$1,$4,$5*
1,1,$1+$1,$6,$7*
1,1,$1+$1,$8,$9*
0 Add four rect primitives between the rounded corners*
20,1,$1+$1,$2,$3,$4,$5,0*
20,1,$1+$1,$4,$5,$6,$7,0*
20,1,$1+$1,$6,$7,$8,$9,0*
20,1,$1+$1,$8,$9,$2,$3,0*%
G04 Aperture macros list end*
G04 #@! TA.AperFunction,SMDPad,CuDef*
%ADD10RoundRect,0.250000X0.625000X-0.400000X0.625000X0.400000X-0.625000X0.400000X-0.625000X-0.400000X0*%
G04 #@! TD*
G04 #@! TA.AperFunction,ComponentPad*
%ADD11R,1.050000X1.500000*%
G04 #@! TD*
G04 #@! TA.AperFunction,ComponentPad*
%ADD12O,1.050000X1.500000*%
G04 #@! TD*
G04 #@! TA.AperFunction,SMDPad,CuDef*
%ADD13RoundRect,0.250000X0.375000X0.625000X-0.375000X0.625000X-0.375000X-0.625000X0.375000X-0.625000X0*%
G04 #@! TD*
G04 #@! TA.AperFunction,ComponentPad*
%ADD14R,2.000000X4.600000*%
G04 #@! TD*
G04 #@! TA.AperFunction,ComponentPad*
%ADD15O,2.000000X4.200000*%
G04 #@! TD*
G04 #@! TA.AperFunction,ComponentPad*
%ADD16O,4.200000X2.000000*%
G04 #@! TD*
G04 #@! TA.AperFunction,SMDPad,CuDef*
%ADD17RoundRect,0.250000X-0.400000X-0.625000X0.400000X-0.625000X0.400000X0.625000X-0.400000X0.625000X0*%
G04 #@! TD*
G04 #@! TA.AperFunction,ComponentPad*
%ADD18C,2.000000*%
G04 #@! TD*
G04 #@! TA.AperFunction,ComponentPad*
%ADD19R,1.651000X1.651000*%
G04 #@! TD*
G04 #@! TA.AperFunction,ComponentPad*
%ADD20C,1.651000*%
G04 #@! TD*
G04 #@! TA.AperFunction,SMDPad,CuDef*
%ADD21RoundRect,0.250000X-0.650000X0.325000X-0.650000X-0.325000X0.650000X-0.325000X0.650000X0.325000X0*%
G04 #@! TD*
G04 #@! TA.AperFunction,SMDPad,CuDef*
%ADD22RoundRect,0.250000X0.325000X0.650000X-0.325000X0.650000X-0.325000X-0.650000X0.325000X-0.650000X0*%
G04 #@! TD*
G04 #@! TA.AperFunction,ComponentPad*
%ADD23RoundRect,0.250000X0.750000X-0.750000X0.750000X0.750000X-0.750000X0.750000X-0.750000X-0.750000X0*%
G04 #@! TD*
G04 #@! TA.AperFunction,SMDPad,CuDef*
%ADD24RoundRect,0.250000X0.650000X-0.325000X0.650000X0.325000X-0.650000X0.325000X-0.650000X-0.325000X0*%
G04 #@! TD*
G04 #@! TA.AperFunction,ComponentPad*
%ADD25R,1.700000X1.700000*%
G04 #@! TD*
G04 #@! TA.AperFunction,ComponentPad*
%ADD26C,1.700000*%
G04 #@! TD*
G04 #@! TA.AperFunction,SMDPad,CuDef*
%ADD27RoundRect,0.250000X-0.625000X0.400000X-0.625000X-0.400000X0.625000X-0.400000X0.625000X0.400000X0*%
G04 #@! TD*
G04 #@! TA.AperFunction,SMDPad,CuDef*
%ADD28RoundRect,0.150000X-0.825000X-0.150000X0.825000X-0.150000X0.825000X0.150000X-0.825000X0.150000X0*%
G04 #@! TD*
G04 #@! TA.AperFunction,SMDPad,CuDef*
%ADD29RoundRect,0.250000X-0.325000X-0.650000X0.325000X-0.650000X0.325000X0.650000X-0.325000X0.650000X0*%
G04 #@! TD*
G04 #@! TA.AperFunction,ComponentPad*
%ADD30O,2.200000X3.500000*%
G04 #@! TD*
G04 #@! TA.AperFunction,ComponentPad*
%ADD31R,1.500000X2.500000*%
G04 #@! TD*
G04 #@! TA.AperFunction,ComponentPad*
%ADD32O,1.500000X2.500000*%
G04 #@! TD*
G04 #@! TA.AperFunction,ViaPad*
%ADD33C,8.255000*%
G04 #@! TD*
G04 #@! TA.AperFunction,ViaPad*
%ADD34C,0.600000*%
G04 #@! TD*
G04 #@! TA.AperFunction,Conductor*
%ADD35C,0.533400*%
G04 #@! TD*
G04 APERTURE END LIST*
D10*
G04 #@! TO.P,R5,1*
G04 #@! TO.N,/THR_TRIG*
X181250000Y-87050000D03*
G04 #@! TO.P,R5,2*
G04 #@! TO.N,/FWD*
X181250000Y-83950000D03*
G04 #@! TD*
D11*
G04 #@! TO.P,Q1,1,C_1*
G04 #@! TO.N,/ServoData*
X167460000Y-83617677D03*
D12*
G04 #@! TO.P,Q1,2,B_2*
G04 #@! TO.N,/Base*
X168730000Y-83617677D03*
G04 #@! TO.P,Q1,3,E_3*
G04 #@! TO.N,GND*
X170000000Y-83617677D03*
G04 #@! TD*
D13*
G04 #@! TO.P,D2,1,K_1*
G04 #@! TO.N,/5VIND*
X141950000Y-89000000D03*
G04 #@! TO.P,D2,2,A_2*
G04 #@! TO.N,5V0*
X139150000Y-89000000D03*
G04 #@! TD*
D14*
G04 #@! TO.P,J1,1*
G04 #@! TO.N,9V0*
X147350000Y-76100000D03*
D15*
G04 #@! TO.P,J1,2*
G04 #@! TO.N,GND*
X141050000Y-76100000D03*
D16*
G04 #@! TO.P,J1,3*
G04 #@! TO.N,unconnected-(J1-Pad3)*
X144450000Y-80900000D03*
G04 #@! TD*
D17*
G04 #@! TO.P,R1,1*
G04 #@! TO.N,/9VIND*
X144000000Y-86000000D03*
G04 #@! TO.P,R1,2*
G04 #@! TO.N,GND*
X147100000Y-86000000D03*
G04 #@! TD*
D13*
G04 #@! TO.P,D1,1,K_1*
G04 #@! TO.N,/9VIND*
X141950000Y-86000000D03*
G04 #@! TO.P,D1,2,A_2*
G04 #@! TO.N,/SwitchOut*
X139150000Y-86000000D03*
G04 #@! TD*
D18*
G04 #@! TO.P,SW3,1,1_1*
G04 #@! TO.N,/BWD*
X191250000Y-91500000D03*
X184750000Y-91500000D03*
G04 #@! TO.P,SW3,2,2_2*
G04 #@! TO.N,/DIS*
X191250000Y-87000000D03*
X184750000Y-87000000D03*
G04 #@! TD*
D19*
G04 #@! TO.P,U2,1,IN_1*
G04 #@! TO.N,/SwitchOut*
X155678911Y-90500000D03*
D20*
G04 #@! TO.P,U2,2,GND_2*
G04 #@! TO.N,GND*
X158218911Y-90500000D03*
G04 #@! TO.P,U2,3,OUT_3*
G04 #@! TO.N,5V0*
X160758911Y-90500000D03*
G04 #@! TD*
D21*
G04 #@! TO.P,C6,1*
G04 #@! TO.N,/COUT*
X178250000Y-91642677D03*
G04 #@! TO.P,C6,2*
G04 #@! TO.N,GND*
X178250000Y-94592677D03*
G04 #@! TD*
D22*
G04 #@! TO.P,C3,1*
G04 #@! TO.N,5V0*
X162266811Y-94250000D03*
G04 #@! TO.P,C3,2*
G04 #@! TO.N,GND*
X159316811Y-94250000D03*
G04 #@! TD*
D23*
G04 #@! TO.P,C2,1*
G04 #@! TO.N,5V0*
X171500000Y-76117677D03*
D18*
G04 #@! TO.P,C2,2*
G04 #@! TO.N,GND*
X171500000Y-71117677D03*
G04 #@! TD*
D24*
G04 #@! TO.P,C4,1*
G04 #@! TO.N,5V0*
X178500000Y-75475000D03*
G04 #@! TO.P,C4,2*
G04 #@! TO.N,GND*
X178500000Y-72525000D03*
G04 #@! TD*
D25*
G04 #@! TO.P,J2,1,Pin_1_1*
G04 #@! TO.N,9V0*
X146500000Y-65250000D03*
D26*
G04 #@! TO.P,J2,2,Pin_2_2*
G04 #@! TO.N,GND*
X146500000Y-67790000D03*
G04 #@! TD*
D10*
G04 #@! TO.P,R3,1*
G04 #@! TO.N,/OUT*
X167250000Y-91550000D03*
G04 #@! TO.P,R3,2*
G04 #@! TO.N,/Base*
X167250000Y-88450000D03*
G04 #@! TD*
D27*
G04 #@! TO.P,R6,1*
G04 #@! TO.N,/THR_TRIG*
X181250000Y-90700000D03*
G04 #@! TO.P,R6,2*
G04 #@! TO.N,/BWD*
X181250000Y-93800000D03*
G04 #@! TD*
D10*
G04 #@! TO.P,R7,1*
G04 #@! TO.N,/ServoData*
X182250000Y-73550000D03*
G04 #@! TO.P,R7,2*
G04 #@! TO.N,5V0*
X182250000Y-70450000D03*
G04 #@! TD*
D25*
G04 #@! TO.P,J3,1,Pin_1_1*
G04 #@! TO.N,GND*
X190540000Y-72000000D03*
D26*
G04 #@! TO.P,J3,2,Pin_2_2*
G04 #@! TO.N,5V0*
X188000000Y-72000000D03*
G04 #@! TO.P,J3,3,Pin_3_3*
G04 #@! TO.N,/ServoData*
X185460000Y-72000000D03*
G04 #@! TD*
D28*
G04 #@! TO.P,U1,1,GND_1*
G04 #@! TO.N,GND*
X170275000Y-87712677D03*
G04 #@! TO.P,U1,2,TRIG_2*
G04 #@! TO.N,/THR_TRIG*
X170275000Y-88982677D03*
G04 #@! TO.P,U1,3,OUT_3*
G04 #@! TO.N,/OUT*
X170275000Y-90252677D03*
G04 #@! TO.P,U1,4,~{RST}_4*
G04 #@! TO.N,5V0*
X170275000Y-91522677D03*
G04 #@! TO.P,U1,5,CONT_5*
G04 #@! TO.N,/COUT*
X175225000Y-91522677D03*
G04 #@! TO.P,U1,6,THRES_6*
G04 #@! TO.N,/THR_TRIG*
X175225000Y-90252677D03*
G04 #@! TO.P,U1,7,DISCH_7*
G04 #@! TO.N,/DIS*
X175225000Y-88982677D03*
G04 #@! TO.P,U1,8,VCC_8*
G04 #@! TO.N,5V0*
X175225000Y-87712677D03*
G04 #@! TD*
D22*
G04 #@! TO.P,C5,1*
G04 #@! TO.N,/THR_TRIG*
X173225000Y-93867677D03*
G04 #@! TO.P,C5,2*
G04 #@! TO.N,GND*
X170275000Y-93867677D03*
G04 #@! TD*
D27*
G04 #@! TO.P,R4,1*
G04 #@! TO.N,5V0*
X178250000Y-84700000D03*
G04 #@! TO.P,R4,2*
G04 #@! TO.N,/DIS*
X178250000Y-87800000D03*
G04 #@! TD*
D18*
G04 #@! TO.P,SW2,1,1_1*
G04 #@! TO.N,/FWD*
X191250000Y-82500000D03*
X184750000Y-82500000D03*
G04 #@! TO.P,SW2,2,2_2*
G04 #@! TO.N,/DIS*
X191250000Y-78000000D03*
X184750000Y-78000000D03*
G04 #@! TD*
D17*
G04 #@! TO.P,R2,1*
G04 #@! TO.N,/5VIND*
X144000000Y-89000000D03*
G04 #@! TO.P,R2,2*
G04 #@! TO.N,GND*
X147100000Y-89000000D03*
G04 #@! TD*
D29*
G04 #@! TO.P,C1,1*
G04 #@! TO.N,/SwitchOut*
X154066811Y-94250000D03*
G04 #@! TO.P,C1,2*
G04 #@! TO.N,GND*
X157016811Y-94250000D03*
G04 #@! TD*
D30*
G04 #@! TO.P,SW1,*
G04 #@! TO.N,*
X138950000Y-95250000D03*
X147150000Y-95250000D03*
D31*
G04 #@! TO.P,SW1,1,A_1*
G04 #@! TO.N,unconnected-(SW1-A-Pad1)*
X141050000Y-95250000D03*
D32*
G04 #@! TO.P,SW1,2,B_2*
G04 #@! TO.N,9V0*
X143050000Y-95250000D03*
G04 #@! TO.P,SW1,3,C_3*
G04 #@! TO.N,/SwitchOut*
X145050000Y-95250000D03*
G04 #@! TD*
D33*
G04 #@! TO.N,GND*
X197500000Y-65500000D03*
X197500000Y-95250000D03*
X138000000Y-65500000D03*
D34*
X148750000Y-84000000D03*
X176250000Y-96000000D03*
X168250000Y-95750000D03*
X178500000Y-70750000D03*
G04 #@! TD*
G04 #@! TO.N,/THR_TRIG*
D35*
X170275000Y-88982677D02*
X171982677Y-88982677D01*
X173252677Y-90252677D02*
X173225000Y-90280354D01*
X173225000Y-90280354D02*
X173225000Y-93867677D01*
X171982677Y-88982677D02*
X173252677Y-90252677D01*
X180802677Y-90252677D02*
X181250000Y-90700000D01*
X181250000Y-90700000D02*
X181250000Y-87050000D01*
X175225000Y-90252677D02*
X173252677Y-90252677D01*
X175225000Y-90252677D02*
X180802677Y-90252677D01*
G04 #@! TO.N,/FWD*
X184750000Y-82500000D02*
X182700000Y-82500000D01*
X191250000Y-82500000D02*
X184750000Y-82500000D01*
X182700000Y-82500000D02*
X181250000Y-83950000D01*
G04 #@! TO.N,/ServoData*
X169250000Y-79750000D02*
X178250000Y-79750000D01*
X167460000Y-83617677D02*
X167460000Y-81540000D01*
X185460000Y-72000000D02*
X182750000Y-72000000D01*
X182250000Y-75750000D02*
X182250000Y-73550000D01*
X178250000Y-79750000D02*
X182250000Y-75750000D01*
X182250000Y-72500000D02*
X182250000Y-73550000D01*
X167460000Y-81540000D02*
X169250000Y-79750000D01*
X185460000Y-72540000D02*
X185460000Y-72000000D01*
X182750000Y-72000000D02*
X182250000Y-72500000D01*
G04 #@! TO.N,/Base*
X168730000Y-85270000D02*
X167250000Y-86750000D01*
X167250000Y-86750000D02*
X167250000Y-88567677D01*
X168730000Y-83617677D02*
X168730000Y-85270000D01*
G04 #@! TO.N,GND*
X170275000Y-87712677D02*
X170000000Y-87437677D01*
X170132323Y-93867677D02*
X168250000Y-95750000D01*
X159316811Y-91566811D02*
X159316811Y-94250000D01*
X148750000Y-84000000D02*
X147750000Y-84000000D01*
X147100000Y-84650000D02*
X147100000Y-86000000D01*
X170000000Y-87437677D02*
X170000000Y-83617677D01*
X147750000Y-84000000D02*
X147100000Y-84650000D01*
X159218911Y-91500000D02*
X159250000Y-91500000D01*
X176250000Y-96000000D02*
X176842677Y-96000000D01*
X157016811Y-94250000D02*
X159316811Y-94250000D01*
X178500000Y-70750000D02*
X178500000Y-72525000D01*
X170275000Y-93867677D02*
X170132323Y-93867677D01*
X158218911Y-90500000D02*
X159218911Y-91500000D01*
X176842677Y-96000000D02*
X178250000Y-94592677D01*
X147100000Y-86000000D02*
X147100000Y-89000000D01*
X159250000Y-91500000D02*
X159316811Y-91566811D01*
G04 #@! TO.N,/5VIND*
X141950000Y-89000000D02*
X144000000Y-89000000D01*
G04 #@! TO.N,5V0*
X188000000Y-72000000D02*
X188000000Y-72250000D01*
X160758911Y-90500000D02*
X160758911Y-84741089D01*
X151750000Y-90750000D02*
X153750000Y-88750000D01*
X175225000Y-86025000D02*
X176550000Y-84700000D01*
X179775000Y-75475000D02*
X180500000Y-74750000D01*
X187250000Y-69750000D02*
X188000000Y-70500000D01*
X180500000Y-72200000D02*
X182250000Y-70450000D01*
X177857323Y-76117677D02*
X178500000Y-75475000D01*
X188000000Y-72250000D02*
X178250000Y-82000000D01*
X153750000Y-88750000D02*
X159008911Y-88750000D01*
X175225000Y-87712677D02*
X175225000Y-86025000D01*
X169382323Y-76117677D02*
X177857323Y-76117677D01*
X140900000Y-90750000D02*
X151750000Y-90750000D01*
X167147183Y-94250000D02*
X169874506Y-91522677D01*
X182300000Y-70450000D02*
X183000000Y-69750000D01*
X178250000Y-82000000D02*
X178250000Y-84700000D01*
X188000000Y-70500000D02*
X188000000Y-72000000D01*
X182250000Y-70450000D02*
X182300000Y-70450000D01*
X169874506Y-91522677D02*
X170275000Y-91522677D01*
X160758911Y-92742100D02*
X162266811Y-94250000D01*
X162266811Y-94250000D02*
X167147183Y-94250000D01*
X160758911Y-84741089D02*
X169382323Y-76117677D01*
X176550000Y-84700000D02*
X178250000Y-84700000D01*
X178500000Y-75475000D02*
X179775000Y-75475000D01*
X180500000Y-74750000D02*
X180500000Y-72200000D01*
X160758911Y-90500000D02*
X160758911Y-92742100D01*
X159008911Y-88750000D02*
X160758911Y-90500000D01*
X183000000Y-69750000D02*
X187250000Y-69750000D01*
X139150000Y-89000000D02*
X140900000Y-90750000D01*
G04 #@! TO.N,9V0*
X148000000Y-65250000D02*
X146500000Y-65250000D01*
X138250000Y-92750000D02*
X142250000Y-92750000D01*
X149500000Y-70500000D02*
X149500000Y-66750000D01*
X143050000Y-93550000D02*
X143050000Y-95250000D01*
X147350000Y-72650000D02*
X149500000Y-70500000D01*
X142250000Y-92750000D02*
X143050000Y-93550000D01*
X149500000Y-66750000D02*
X148000000Y-65250000D01*
X136500000Y-84750000D02*
X136500000Y-91000000D01*
X145150000Y-76100000D02*
X136500000Y-84750000D01*
X136500000Y-91000000D02*
X138250000Y-92750000D01*
X147350000Y-76100000D02*
X145150000Y-76100000D01*
X147350000Y-76100000D02*
X147350000Y-72650000D01*
G04 #@! TO.N,/9VIND*
X141950000Y-86000000D02*
X144000000Y-86000000D01*
G04 #@! TO.N,/SwitchOut*
X155678911Y-92637900D02*
X154066811Y-94250000D01*
X155678911Y-90500000D02*
X155678911Y-92637900D01*
X138500000Y-86000000D02*
X139150000Y-86000000D01*
X145050000Y-93300000D02*
X143500000Y-91750000D01*
X145050000Y-95250000D02*
X145050000Y-93300000D01*
X151750000Y-98250000D02*
X146250000Y-98250000D01*
X137500000Y-87000000D02*
X138500000Y-86000000D01*
X137500000Y-90500000D02*
X137500000Y-87000000D01*
X145050000Y-97050000D02*
X145050000Y-95250000D01*
X154066811Y-95933189D02*
X151750000Y-98250000D01*
X154066811Y-94250000D02*
X154066811Y-95933189D01*
X146250000Y-98250000D02*
X145050000Y-97050000D01*
X138750000Y-91750000D02*
X137500000Y-90500000D01*
X143500000Y-91750000D02*
X138750000Y-91750000D01*
G04 #@! TO.N,/BWD*
X182450000Y-93800000D02*
X184750000Y-91500000D01*
X184750000Y-91500000D02*
X191250000Y-91500000D01*
X181250000Y-93800000D02*
X182450000Y-93800000D01*
G04 #@! TO.N,/DIS*
X191250000Y-78000000D02*
X184750000Y-78000000D01*
X183250000Y-85500000D02*
X184750000Y-87000000D01*
X175225000Y-88982677D02*
X177935000Y-88982677D01*
X177935000Y-88982677D02*
X178250000Y-88667677D01*
X178250000Y-88667677D02*
X178250000Y-87800000D01*
X193750000Y-79250000D02*
X192500000Y-78000000D01*
X192500000Y-78000000D02*
X191250000Y-78000000D01*
X193750000Y-84500000D02*
X193750000Y-79250000D01*
X178250000Y-87250000D02*
X180000000Y-85500000D01*
X184750000Y-87000000D02*
X191250000Y-87000000D01*
X191250000Y-87000000D02*
X193750000Y-84500000D01*
X178250000Y-87800000D02*
X178250000Y-87250000D01*
X180000000Y-85500000D02*
X183250000Y-85500000D01*
G04 #@! TO.N,/COUT*
X178130000Y-91522677D02*
X178250000Y-91642677D01*
X175225000Y-91522677D02*
X178130000Y-91522677D01*
G04 #@! TO.N,/OUT*
X167250000Y-91667677D02*
X168665000Y-90252677D01*
X168665000Y-90252677D02*
X170275000Y-90252677D01*
G04 #@! TD*
M02*
