M48
; DRILL file KiCad 10.0.3 date 2026-06-07T14:47:17
; FORMAT={-:-/ absolute / inch / decimal}
; #@! TF.CreationDate,2026-06-07T14:47:17-04:00
; #@! TF.GenerationSoftware,Kicad,Pcbnew,10.0.3
; #@! TF.FileFunction,MixedPlating,1,2
FMAT,2
INCH
; #@! TA.AperFunction,Plated,PTH,ViaDrill
T1C0.0118
; #@! TA.AperFunction,Plated,PTH,ComponentDrill
T2C0.0295
; #@! TA.AperFunction,Plated,PTH,ComponentDrill
T3C0.0315
; #@! TA.AperFunction,Plated,PTH,ComponentDrill
T4C0.0394
; #@! TA.AperFunction,Plated,PTH,ComponentDrill
T5C0.0433
; #@! TA.AperFunction,Plated,PTH,ComponentDrill
T6C0.0450
; #@! TA.AperFunction,Plated,PTH,ComponentDrill
T7C0.0591
; #@! TA.AperFunction,Plated,PTH,ViaDrill
T8C0.1350
%
G90
G05
T1
X5.8563Y-3.3071
X6.624Y-3.7697
X6.939Y-3.7795
X7.0276Y-2.7854
T2
X6.5929Y-3.292
X6.6429Y-3.292
X6.6929Y-3.292
T3
X5.5531Y-3.75
X5.6319Y-3.75
X5.7106Y-3.75
T4
X5.7677Y-2.5689
X5.7677Y-2.6689
X6.752Y-2.7999
X6.752Y-2.9968
X7.3016Y-2.8346
X7.4016Y-2.8346
X7.5016Y-2.8346
T5
X7.2736Y-3.0709
X7.2736Y-3.248
X7.2736Y-3.4252
X7.2736Y-3.6024
X7.5295Y-3.0709
X7.5295Y-3.248
X7.5295Y-3.4252
X7.5295Y-3.6024
T6
X6.1291Y-3.563
X6.2291Y-3.563
X6.3291Y-3.563
T7
X5.4705Y-3.75
X5.7933Y-3.75
T8
X5.4331Y-2.5787
X7.7756Y-2.5787
X7.7756Y-3.75
T4
G00X5.5531Y-2.9528
M15
G01X5.5531Y-3.0394
M16
G05
G00X5.7303Y-3.185
M15
G01X5.6437Y-3.185
M16
G05
G00X5.8012Y-2.9449
M15
G01X5.8012Y-3.0472
M16
G05
M30
